<?xml version="1.0" standalone="no"?>
<!DOCTYPE svg PUBLIC "-//W3C//DTD SVG 1.1//EN" "http://www.w3.org/Graphics/SVG/1.1/DTD/svg11.dtd" >
<svg xmlns="http://www.w3.org/2000/svg" xmlns:xlink="http://www.w3.org/1999/xlink" version="1.1">
<metadata>
Created by FontForge 20200427 at Tue May 12 22:58:03 2020
 By www
Imagex 2020. All Rights Reserved
</metadata>
<defs>
<font id="KidGames" horiz-adv-x="1014" >
  <font-face 
    font-family="Kid Games"
    font-weight="400"
    font-stretch="normal"
    units-per-em="2048"
    panose-1="2 0 5 0 0 0 0 0 0 0"
    ascent="1638"
    descent="-410"
    cap-height="1434"
    bbox="-666.062 -407.2 2534.1 2096.56"
    underline-thickness="150"
    underline-position="-292"
    unicode-range="U+0020-F002"
  />
<missing-glyph horiz-adv-x="1024" 
d="M100 0v1434h824v-1434h-824zM150 50h724v1334h-724v-1334zM325 1148q31 28 58 43q53 30 112 30q92 0 148 -47.5t56 -127.5q0 -49 -23 -98.5t-87 -129.5q-63 -80 -99 -132t-36 -99q0 -38 24 -133h-32q-35 97 -35 148q0 76 81.5 218t81.5 217q0 57 -33 90t-91 33
q-38 0 -69 -17q-26 -15 -56 -40v45zM389 334l57 58q11 10 20 10q10 0 22 -11l56 -60q9 -11 9 -20q0 -11 -10 -22l-56 -62q-14 -14 -21 -14q-11 0 -20 10l-61 71q-7 9 -7 18q0 10 11 22z" />
    <glyph glyph-name=".notdef" horiz-adv-x="1024" 
d="M100 0v1434h824v-1434h-824zM150 50h724v1334h-724v-1334zM325 1148q31 28 58 43q53 30 112 30q92 0 148 -47.5t56 -127.5q0 -49 -23 -98.5t-87 -129.5q-63 -80 -99 -132t-36 -99q0 -38 24 -133h-32q-35 97 -35 148q0 76 81.5 218t81.5 217q0 57 -33 90t-91 33
q-38 0 -69 -17q-26 -15 -56 -40v45zM389 334l57 58q11 10 20 10q10 0 22 -11l56 -60q9 -11 9 -20q0 -11 -10 -22l-56 -62q-14 -14 -21 -14q-11 0 -20 10l-61 71q-7 9 -7 18q0 10 11 22z" />
    <glyph glyph-name=".null" horiz-adv-x="0" 
 />
    <glyph glyph-name="nonmarkingreturn" horiz-adv-x="508" 
 />
    <glyph glyph-name="space" unicode=" " horiz-adv-x="508" 
 />
    <glyph glyph-name="space" unicode="&#xa0;" horiz-adv-x="508" 
 />
    <glyph glyph-name="exclam" unicode="!" horiz-adv-x="660" 
d="M521 376q-260 7 -422 -2q-30 -1 -40 -44q-29 -171 0 -284q6 -34 51 -51q204 -46 441 1q24 9 25 42q21 175 7 303q-5 33 -62 35zM531 481q48 319 52 950q0 17 -20 22q-238 20 -477 2q-42 -6 -43 -27q1 -520 63 -950q0 -23 29 -28q99 -15 340 2q53 5 56 29z" />
    <glyph glyph-name="quotedbl" unicode="&#x22;" horiz-adv-x="1247" 
d="M577 1429q-9 51 -33 60q-237 47 -441 1q-45 -17 -51 -51q-29 -113 -3 -277q10 -43 43 -51q65 -4 147 -5q-10 -52 -43 -149q-13 -34 15 -42q316 19 354 173q26 79 18 212q0 62 -6 129zM1167 1429q-9 51 -33 60q-237 47 -441 1q-45 -17 -51 -51q-29 -113 -3 -277
q10 -43 43 -51q65 -4 147 -5q-10 -52 -43 -149q-13 -34 15 -42q316 19 354 173q26 79 18 212q0 62 -6 129z" />
    <glyph glyph-name="numbersign" unicode="#" horiz-adv-x="1734" 
d="M73 656q-25 0 -32 -15q-31 -154 -3 -298q8 -31 40 -31h73q-40 -127 -86 -270q-15 -29 22 -40q228 -22 469 -4q41 8 54 41q37 143 66 272h132q-39 -127 -85 -269q-15 -29 22 -40q228 -22 469 -4q41 8 54 41q37 144 67 274q75 0 146 1q35 1 41 22q30 110 5 286
q-5 38 -43 40q-38 0 -79 1q1 9 3 19q8 53 17 104q77 0 149 1q35 1 41 22q30 109 5 286q-5 38 -42 40q-39 0 -81 1q38 137 64 249q9 46 -58 63q-249 21 -389 -7q-33 -13 -38 -35q-26 -120 -57 -269q-87 -1 -180 -1q38 137 64 249q9 46 -58 63q-249 21 -389 -7
q-33 -13 -38 -35q-27 -122 -58 -275q-94 -1 -194 -2q-25 0 -31 -15q-32 -154 -4 -298q8 -31 40 -31h116q-16 -60 -34 -127q-88 -1 -180 -2zM945 784q-15 -57 -33 -120q-79 -1 -165 -1q1 9 3 19q8 52 16 102h179z" />
    <glyph glyph-name="dollar" unicode="$" horiz-adv-x="1434" 
d="M253 1435q-145 -32 -194 -145q-101 -363 61 -626q52 -69 166 -94q206 -49 532 -38q72 -12 35 -58q-24 -29 -66 -38q-161 -15 -642 25q-38 8 -51 -12q-45 -270 -49 -370q-4 -14 24 -25q165 -33 321 -52q2 -55 12 -118q10 -43 43 -51q162 -9 422 -2q56 0 63 37q6 54 6 114
q89 6 174 17q145 31 194 145q102 363 -60 626q-52 69 -166 93q-302 68 -495 31q-69 -8 -60 65q5 32 53 39q161 14 642 -25q39 -8 51 11q46 271 50 370q4 15 -25 25q-186 38 -360 57q-1 32 -4 66q-9 51 -33 60q-237 47 -441 1q-45 -17 -51 -51q-8 -30 -11 -63
q-72 -5 -141 -14z" />
    <glyph glyph-name="percent" unicode="%" horiz-adv-x="1860" 
d="M1157 1408q-118 -173 -311 -436q-331 -432 -749 -928q-30 -29 2 -40q216 -22 483 -4q46 8 76 41q268 369 455 643q171 253 319 447q112 141 199 256q33 46 -26 63q-238 21 -392 -7q-40 -13 -56 -35zM51 779q-61 90 -52 481q8 105 109 164q101 55 386 27q124 -15 147 -223
q20 -309 -47 -438q-55 -96 -291 -94q-201 4 -252 83zM243 1010q13 -50 47 -59q96 -15 107 30q18 194 -29 214q-62 24 -117 0q-39 -20 -8 -185zM1440 738q236 1 291 -95q67 -128 47 -438q-23 -208 -147 -223q-285 -27 -386 27q-101 59 -109 164q-9 392 52 481q51 79 252 84z
M1388 238q55 -24 117 0q47 20 29 214q-11 46 -107 31q-34 -9 -47 -60q-31 -165 8 -185z" />
    <glyph glyph-name="ampersand" unicode="&#x26;" horiz-adv-x="1377" 
d="M263 1387q-106 -24 -135 -220q-74 -439 71 -468q-34 -19 -57 -46q-162 -234 -63 -545q65 -108 194 -129q58 -7 117 -11q3 -58 15 -106q6 -34 51 -51q204 -46 441 1q24 9 33 60q5 54 6 105q169 17 346 51q28 9 25 22q-8 115 -69 362q-12 17 -51 10q-428 -87 -589 -58
q-41 8 -53 34q-24 61 27 104q20 18 48 29q30 9 260 7v234q-118 12 -249 45q-28 5 -70 46q-43 52 -7 148q14 42 112 46q109 4 480 -150q26 -12 44 8q65 77 101 333q0 21 -30 38q-171 58 -325 92q-1 59 -6 124q-9 51 -33 60q-237 47 -441 1q-45 -17 -51 -51q-12 -45 -14 -99
q-67 -9 -128 -26z" />
    <glyph glyph-name="quotesingle" unicode="'" horiz-adv-x="658" 
d="M577 1429q-9 51 -33 60q-237 47 -441 1q-45 -17 -51 -51q-29 -113 -3 -277q10 -43 43 -51q65 -4 147 -5q-10 -52 -43 -149q-13 -34 15 -42q316 19 354 173q26 79 18 212q0 62 -6 129z" />
    <glyph glyph-name="parenleft" unicode="(" horiz-adv-x="979" 
d="M533 233q106 -55 279 -18q26 10 35 -8q32 -81 19 -342q4 -25 -20 -36q-232 -64 -543 14q-145 36 -211 138q-107 195 -39 1273q40 266 206 316q350 91 573 34q36 -15 31 -37q8 -217 -17 -355q-16 -29 -48 -19q-165 16 -263 -70q-34 -29 -36.5 -442.5t34.5 -447.5z" />
    <glyph glyph-name="parenright" unicode=")" horiz-adv-x="979" 
d="M363 1193q-106 55 -279 18q-26 -10 -35 8q-32 81 -19 342q-4 25 20 36q232 64 543 -14q145 -36 211 -138q107 -195 39 -1273q-40 -266 -206 -316q-350 -91 -573 -34q-36 15 -31 37q-8 217 17 355q16 29 48 19q165 -16 263 70q34 29 36.5 442.5t-34.5 447.5z" />
    <glyph glyph-name="asterisk" unicode="*" horiz-adv-x="1115" 
d="M992 1192q12 11 0 28q-129 160 -277 285q-33 26 -48 12q-81 -79 -155 -152q-74 72 -155 150q-11 11 -28 0q-160 -129 -285 -278q-26 -32 -13 -47q77 -79 149 -153q-79 -79 -147 -148q-15 -16 3 -40q89 -117 266 -274q37 -34 56 -19q68 63 153 147q79 -79 149 -147
q16 -15 40 3q117 88 274 265q34 38 19 57q-64 69 -150 156q71 74 149 155z" />
    <glyph glyph-name="plus" unicode="+" horiz-adv-x="1057" 
d="M727 1165q0 16 -20 20q-205 20 -398 2q-41 -5 -42 -25q-1 -113 -1 -218q-102 -2 -215 -5q-16 0 -20 -20q-20 -205 -2 -398q5 -41 25 -42q111 -1 214 -1q0 -111 2 -209q1 -22 30 -26q146 -19 382 -3q51 3 53 27q2 92 3 212q111 1 209 3q22 1 26 30q19 146 3 382
q-3 51 -27 53q-94 2 -217 3q-2 102 -5 215z" />
    <glyph glyph-name="comma" unicode="," horiz-adv-x="658" 
d="M577 300q-9 51 -33 60q-237 47 -441 1q-45 -17 -51 -51q-29 -113 -3 -277q10 -43 43 -51q65 -4 147 -5q-10 -52 -43 -149q-13 -34 15 -42q316 19 354 173q26 79 18 212q0 62 -6 129z" />
    <glyph glyph-name="hyphen" unicode="-" horiz-adv-x="1057" 
d="M949 947q-301 8 -898 -8q-16 0 -20 -20q-20 -205 -2 -398q5 -41 25 -42q539 -3 893 3q22 1 26 30q19 146 3 382q-3 51 -27 53z" />
    <glyph glyph-name="hyphen" unicode="&#xad;" horiz-adv-x="1057" 
d="M949 947q-301 8 -898 -8q-16 0 -20 -20q-20 -205 -2 -398q5 -41 25 -42q539 -3 893 3q22 1 26 30q19 146 3 382q-3 51 -27 53z" />
    <glyph glyph-name="period" unicode="." horiz-adv-x="658" 
d="M577 17q13 126 0 283q-9 51 -33 60q-237 47 -441 1q-45 -17 -51 -51q-29 -113 -3 -277q10 -43 43 -51q162 -9 422 -2q56 0 63 37z" />
    <glyph glyph-name="slash" unicode="/" horiz-adv-x="1246" 
d="M673 1408q-63 -173 -174 -436q-195 -432 -457 -928q-22 -29 13 -40q223 -22 486 -4q42 8 62 41q153 369 254 643q91 253 178 447q68 141 119 256q18 46 -46 63q-244 21 -390 -7q-36 -13 -45 -35z" />
    <glyph glyph-name="zero" unicode="0" horiz-adv-x="1903" 
d="M1517 1393q145 -36 214 -189q85 -198 39 -855q-41 -281 -206 -316q-750 -91 -1280 16q-80 21 -131 93q-125 199 -123 623q10 330 91 490q36 88 163 118q621 135 1233 20zM1178 414q54 10 72 50q31 69 35 209q1 179 -49 264q-22 31 -58 40q-232 45 -515 3
q-105 -12 -124 -131q-19 -279 18 -363q30 -64 93 -80q248 -49 528 8z" />
    <glyph glyph-name="one" unicode="1" horiz-adv-x="856" 
d="M43 1049q-5 -45 63 -50l156 -6q7 -509 30 -951q0 -33 30 -39q99 -22 339 2q53 6 56 42q18 457 22 1363q1 24 -20 30q-208 31 -416 4q-26 -5 -41 -25q-197 -205 -219 -370z" />
    <glyph glyph-name="two" unicode="2" horiz-adv-x="1479" 
d="M21 362q-17 -136 10 -317q7 -37 33 -38q750 -20 1222 1q30 1 35 29q24 137 -1 357q-6 47 -38 49q-177 -3 -438 -5q139 73 218 98q105 51 157 119q155 250 64 529q-101 248 -515 276q-369 30 -716 -194q-29 -10 -25 -25q4 -98 150 -370q12 -19 51 -11q254 167 535 125
q41 -9 53 -39q12 -41 8 -68q1 -33 -36 -55q-19 -20 -48 -25q-149 -51 -280 -77.5t-222 -82.5q-199 -143 -217 -276z" />
    <glyph glyph-name="three" unicode="3" horiz-adv-x="1377" 
d="M1221 1167q-29 196 -135 220q-388 107 -998 -101q-30 -17 -30 -38q36 -256 101 -333q18 -20 44 -8q371 154 480 150q98 -4 112 -46q36 -96 -7 -148q-42 -41 -70 -46q-131 -33 -249 -45v-234q230 2 260 -7q28 -11 48 -29q51 -43 27 -104q-12 -26 -53 -34q-161 -29 -589 58
q-39 7 -51 -10q-61 -247 -69 -362q-3 -13 25 -22q545 -104 1009 -49q129 21 194 129q99 311 -63 545q-23 27 -57 46q145 29 71 468z" />
    <glyph glyph-name="four" unicode="4" horiz-adv-x="1516" 
d="M51 314q6 -40 26 -42q193 -9 403 -9q-3 -120 20 -209q6 -34 51 -51q204 -46 441 1q24 9 33 60q10 118 10 215q169 10 348 24q22 2 26 29q18 143 10 356q-3 51 -27 52q-285 7 -583 3q239 201 423 395q19 16 -11 61q-132 192 -254 294q-20 21 -40 11q-466 -359 -882 -737
q-9 -8 -11 -28q-27 -231 17 -425z" />
    <glyph glyph-name="five" unicode="5" horiz-adv-x="1423" 
d="M1240 1017q32 1 38 50q25 223 1 361q-5 28 -35 30q-425 11 -1175 -9q-26 -1 -33 -40q-27 -182 -11 -436q23 -281 104 -380q159 32 295 40.5t293 -7.5q30 2 53 -13q41 -13 47 -44q10 -24 8 -66q-2 -49 -48 -70q-264 -112 -600 13q-40 -1 -47 -21q-100 -167 -115 -312
q0 -15 30 -18q498 -193 851 -86q378 120 420 376q34 306 -165 479q-66 53 -205 95q-210 54 -405 -7q1 34 -4 58q416 5 703 7z" />
    <glyph glyph-name="six" unicode="6" horiz-adv-x="1377" 
d="M813 404q-110 -17 -253 7q-31 83 -23 176q40 47 287 11q63 -14 81 -34q33 -23 21 -116q-13 -33 -113 -44zM68 1195q-70 -573 46 -1085q13 -61 41 -81q107 -51 442 -58q473 16 604 98q101 42 121 149q52 409 -23 526q-48 73 -151 100q-255 48 -524 34q-58 -5 -105 -14
q-14 64 0 154q15 42 121 46q118 4 555 -98q28 -12 48 8q70 77 109 355q0 21 -33 38q-661 208 -1082 101q-127 -27 -169 -273z" />
    <glyph glyph-name="seven" unicode="7" horiz-adv-x="1388" 
d="M1288 1389q-5 41 -25 42q-575 43 -1191 -4q-22 -2 -27 -29q-22 -142 -19 -355q2 -51 26 -52q276 -13 604 -15q-248 -398 -440 -774q-13 -20 27 -57q143 -121 287 -190q24 -15 41 -1q419 506 713 991q47 88 4 444z" />
    <glyph glyph-name="eight" unicode="8" horiz-adv-x="1504" 
d="M279 1389q-120 -24 -153 -220q-83 -449 80 -478q-38 -19 -101 -88q-131 -157 -34 -473q50 -106 219 -129q441 -54 877 0q169 26 219 129q78 399 -49 570q-24 32 -86 51q163 29 79 438q-32 206 -152 230q-465 68 -899 -30zM671 839q-78 -3 -116 48q-45 50 7 146
q18 41 151 46q132 -5 152 -46q52 -96 -10 -148q-59 -41 -184 -46zM781 592q88 3 131 -55q51 -56 23 -165q-4 -49 -202 -52q-180 5 -202 52q-29 109 41 167q67 47 209 53z" />
    <glyph glyph-name="nine" unicode="9" horiz-adv-x="1377" 
d="M581 1071q110 17 253 -7q31 -82 23 -176q-40 -47 -287 -11q-63 14 -81 34q-33 24 -21 116q13 34 113 44zM1326 280q70 573 -46 1085q-13 61 -41 81q-107 51 -442 58q-473 -16 -604 -98q-101 -42 -121 -149q-52 -409 23 -526q48 -73 151 -100q255 -48 524 -34q58 5 105 14
q14 -64 0 -154q-15 -42 -121 -46q-118 -4 -555 98q-28 12 -48 -8q-70 -77 -109 -355q0 -21 33 -38q661 -208 1082 -101q127 27 169 273z" />
    <glyph glyph-name="colon" unicode=":" horiz-adv-x="658" 
d="M577 17q13 126 0 283q-9 51 -33 60q-237 47 -441 1q-45 -17 -51 -51q-29 -113 -3 -277q10 -43 43 -51q162 -9 422 -2q56 0 63 37zM577 654q13 126 0 283q-9 51 -33 60q-237 47 -441 1q-45 -17 -51 -51q-29 -113 -3 -277q10 -43 43 -51q162 -9 422 -2q56 0 63 37zM577 17
q13 126 0 283q-9 51 -33 60q-237 47 -441 1q-45 -17 -51 -51q-29 -113 -3 -277q10 -43 43 -51q162 -9 422 -2q56 0 63 37z" />
    <glyph glyph-name="semicolon" unicode=";" horiz-adv-x="658" 
d="M577 300q-9 51 -33 60q-237 47 -441 1q-45 -17 -51 -51q-29 -113 -3 -277q10 -43 43 -51q65 -4 147 -5q-10 -52 -43 -149q-13 -34 15 -42q316 19 354 173q26 79 18 212q0 62 -6 129zM577 654q13 126 0 283q-9 51 -33 60q-237 47 -441 1q-45 -17 -51 -51q-29 -113 -3 -277
q10 -43 43 -51q162 -9 422 -2q56 0 63 37z" />
    <glyph glyph-name="semicolon" unicode="&#x37e;" horiz-adv-x="658" 
d="M577 300q-9 51 -33 60q-237 47 -441 1q-45 -17 -51 -51q-29 -113 -3 -277q10 -43 43 -51q65 -4 147 -5q-10 -52 -43 -149q-13 -34 15 -42q316 19 354 173q26 79 18 212q0 62 -6 129zM577 654q13 126 0 283q-9 51 -33 60q-237 47 -441 1q-45 -17 -51 -51q-29 -113 -3 -277
q10 -43 43 -51q162 -9 422 -2q56 0 63 37z" />
    <glyph glyph-name="less" unicode="&#x3c;" horiz-adv-x="1274" 
d="M61 1016q-48 -314 -11 -590q3 -23 29 -36q364 -153 889 -285q21 -5 35 19q69 128 139 329q15 48 -7 57q-481 185 -579 203q338 100 561 203q22 10 7 57q-71 203 -158 325q-13 24 -35 20q-310 -70 -843 -274q-22 -8 -27 -28z" />
    <glyph glyph-name="equal" unicode="=" horiz-adv-x="1057" 
d="M949 1268q-301 8 -898 -8q-16 0 -20 -20q-20 -205 -2 -398q5 -41 25 -42q539 -3 893 3q22 1 26 30q19 146 3 382q-3 51 -27 53zM949 633q-301 8 -898 -8q-16 0 -20 -20q-20 -205 -2 -398q5 -41 25 -42q539 -3 893 3q22 1 26 30q19 146 3 382q-3 51 -27 53z" />
    <glyph glyph-name="greater" unicode="&#x3e;" horiz-adv-x="1274" 
d="M1121 407q48 314 11 590q-3 23 -29 36q-364 153 -889 285q-21 5 -35 -19q-69 -127 -139 -329q-15 -48 7 -57q481 -185 579 -203q-338 -100 -561 -203q-22 -9 -7 -57q71 -203 158 -325q13 -24 35 -20q310 70 843 274q22 8 27 28z" />
    <glyph glyph-name="question" unicode="?" horiz-adv-x="1492" 
d="M329 413q438 -24 470 -3q-3 125 145 152q193 55 243 123q152 247 63 524q-99 246 -503 273q-361 29 -700 -192q-28 -10 -24 -25q4 -97 146 -366q12 -19 50 -11q248 165 526 166q39 -6 52 -38q11 -41 9 -67q-1 -33 -33 -55q-29 -18 -74 -28q-194 -42 -290.5 -105.5
t-111.5 -155.5q-2 -158 32 -192zM760 358q-260 7 -422 -2q-33 -8 -43 -49q-26 -159 3 -268q6 -33 51 -49q204 -45 441 1q24 9 33 58q13 151 0 273q-7 36 -63 36z" />
    <glyph glyph-name="at" unicode="@" horiz-adv-x="2187" 
d="M1315 671q43 15 55 39q61 132 -22 262q-63 114 -611 70q-127 -25 -104 -318q32 -309 100 -324q693 -32 1198 8q32 -26 29 -51q19 -211 -52 -337q-6 -21 -38 -30q-721 -30 -1443 -10q-297 30 -335 169q-63 232 -72 837l1 -1q8 348 200 403q326 108 1143 77
q524 -17 610 -244q104 -338 -7 -567q-137 -169 -409 -180q-378 -10 -676 0q-81 5 -126 84q-42 77 -21 296q12 96 171 113q239 15 338 -35q74 -43 73 -226q0 -18 -2 -35zM1076 658q42 8 50 35q19 75 -17 87q-155 27 -173 -9q-24 -48 -8 -93q12 -33 148 -20z" />
    <glyph glyph-name="A" unicode="A" horiz-adv-x="1702" 
d="M1082 291q47 -165 98 -327q8 -23 62 -13q226 49 371 106q26 10 24 33q-154 769 -327 1320q-10 32 -60 39q-385 42 -823 -13q-34 -8 -41 -26q-173 -551 -338 -1329q-2 -23 25 -33q141 -75 368 -124q54 -10 62 13q53 160 103 334q250 6 476 20zM927 889q31 -134 65 -266
q-131 -1 -290 -3q35 134 66 268q82 0 159 1z" />
    <glyph glyph-name="B" unicode="B" horiz-adv-x="1725" 
d="M1126 994q3 -44 -1 -75q-3 -40 -37 -73q-20 -24 -48 -29q-178 -45 -324 -10q1 93 -2 238q163 17 295 4q103 -13 117 -55zM608 -32q401 -44 791 11q148 43 198 153q95 287 -67 521q-23 27 -57 46q144 31 70 468q-40 187 -162 234q-254 84 -644 79q-355 -4 -667 -116
q-31 -18 -34 -42q0 -142 35 -347q6 -20 28 -19q47 2 93 5q-6 -419 16 -898q3 -22 31 -36q125 -27 369 -59zM869 537q209 -7 231 -35q36 -47 35 -96q4 -23 -8 -70q-12 -26 -53 -34q-144 -26 -361 -15q1 106 4 243q49 6 152 7z" />
    <glyph glyph-name="C" unicode="C" horiz-adv-x="1479" 
d="M1401 151q4 -25 -20 -36q-557 -190 -1078 -92q-145 36 -211 138q-107 195 -39 913q42 281 206 316q591 91 1057 5q36 -15 31 -37q-29 -184 -96 -342q-16 -29 -65 -17q-312 30 -588 -51q-53 -14 -68 -57q-15 -78 -8 -213q14 -176 61 -255q25 -30 61 -36q236 -29 625 84
q26 10 35 -8q57 -101 97 -312z" />
    <glyph glyph-name="D" unicode="D" horiz-adv-x="1804" 
d="M178 67q3 -20 32 -24q698 -112 1220 -8q169 47 202 295q67 728 -38 928q-65 105 -207 146q-512 113 -1333 -17q-24 -11 -20 -37q-8 -215 19 -369q8 -18 34 -8q38 3 74 6q-7 -406 17 -912zM666 994q267 23 391 -5q35 -7 60 -38q46 -82 55 -208q7 -147 -8 -236
q-15 -43 -67 -57q-204 -46 -428 -14q4 274 -3 558z" />
    <glyph glyph-name="E" unicode="E" horiz-adv-x="1487" 
d="M687 549q236 11 423 17q22 1 26 22q20 109 4 284q-4 38 -28 39q-168 1 -428 -6l-2 96q299 10 596 11q32 3 36 52q16 214 -14 351q-7 28 -37 27q-709 18 -1222 -28q-27 -2 -33 -41q3 -189 41 -385q6 -18 28 -17q46 3 91 6q-6 -425 18 -939q3 -22 32 -26q111 -14 270 -9
q529 0 881 32q25 1 29 29q22 138 4 361q-4 49 -31 51q-247 -16 -685 -29q1 51 1 102z" />
    <glyph glyph-name="F" unicode="F" horiz-adv-x="1396" 
d="M187 38q3 -22 31 -26q154 -19 403 -3q54 3 56 27q8 234 10 471q238 22 427 33q22 1 26 22q19 99 3 274q-3 38 -27 39q-169 1 -431 -6q0 54 -2 109q298 6 594 3q33 3 37 54q19 223 -9 366q-6 29 -36 29q-708 29 -1222 -11q-28 -2 -34 -42q0 -197 35 -402q6 -20 28 -19
q47 2 93 5q-6 -419 18 -923z" />
    <glyph glyph-name="G" unicode="G" horiz-adv-x="1457" 
d="M893 71q-283 -106 -590 -48q-145 36 -211 138q-107 195 -39 913q32 253 206 316q557 145 1086 -46q36 -15 31 -37q-29 -184 -96 -342q-16 -29 -65 -17q-341 81 -617 0q-53 -14 -68 -57q-15 -78 -8 -213q5 -109 52 -188q25 -30 61 -36q105 -10 244 61q-3 180 1 304
q2 22 52 25q229 15 371 -3q28 -4 29 -23q19 -337 3 -804q-1 -18 -41 -23q-188 -16 -380 5q-19 3 -19 18q-1 29 -2 57z" />
    <glyph glyph-name="H" unicode="H" horiz-adv-x="1506" 
d="M599 764q-3 320 -13 650q0 17 -22 21q-227 20 -441 2q-45 -5 -46 -26q-36 -586 3 -1385q3 -23 33 -27q162 -19 422 -3q57 4 60 28q3 151 4 304q148 9 288 20q3 -160 6 -318q4 -36 59 -41q243 -21 400 10q31 7 31 40q45 524 -12 1363q-2 30 -46 37q-215 0 -438 -39
q-21 -6 -21 -31q6 -305 12 -605q-126 2 -279 0z" />
    <glyph glyph-name="I" unicode="I" horiz-adv-x="660" 
d="M573 1088q14 128 -7 303q-1 33 -25 42q-237 47 -441 1q-45 -17 -51 -51q-29 -113 0 -284q10 -43 40 -44q162 -9 422 -2q57 2 62 35zM521 29q18 310 22 925q0 16 -20 21q-208 20 -417 2q-42 -6 -43 -26q1 -507 33 -925q0 -23 29 -27q99 -15 340 2q53 4 56 28z" />
    <glyph glyph-name="J" unicode="J" horiz-adv-x="1554" 
d="M1371 1419q25 4 36 -20q110 -609 12 -1130q-36 -145 -138 -211q-195 -107 -913 -39q-281 42 -316 206q-64 403 30 695q15 36 37 31q184 -29 342 -96q29 -16 17 -65q-38 -138 1 -251q39 -71 249 -54q104 9 183 56q30 25 36 61q29 236 -46 760q-10 27 8 35q171 68 462 22z
" />
    <glyph glyph-name="K" unicode="K" horiz-adv-x="1473" 
d="M636 474q233 -326 371 -513q13 -16 38 -4q130 60 314 191q40 29 30 47q-118 180 -381 581q197 165 359 315q19 16 5 40q-68 122 -220 287q-33 36 -55 21q-209 -185 -535 -457q-5 213 -15 427q0 16 -21 20q-216 20 -420 2q-43 -5 -44 -25q-34 -584 3 -1378q3 -22 32 -26
q154 -20 402 -3q54 3 57 27q7 196 9 393q36 28 71 55z" />
    <glyph glyph-name="L" unicode="L" horiz-adv-x="1335" 
d="M1205 14q27 6 32 40q20 128 3 351q-4 49 -29 51q-266 -2 -678 -13q5 473 -18 955q0 16 -21 20q-216 20 -420 2q-43 -5 -44 -25q-34 -576 3 -1350q5 -30 32 -36q478 -25 1140 5z" />
    <glyph glyph-name="M" unicode="M" horiz-adv-x="1903" 
d="M898 352q11 -15 27 -15t27 15q147 166 259 294q41 -335 91 -637q5 -24 62 -23q262 4 421 36q29 6 29 29q-69 795 -171 1301q-4 20 -58 40q-220 57 -433 53q-19 -3 -28 -18q-91 -137 -199 -305q-109 168 -200 305q-10 15 -32 18q-214 4 -434 -53q-54 -20 -58 -40
q-102 -506 -171 -1301q0 -23 30 -29q158 -32 420 -36q57 -1 63 23q50 304 91 643q114 -131 264 -300z" />
    <glyph glyph-name="N" unicode="N" horiz-adv-x="1558" 
d="M938 4q27 -33 43 -35q260 -4 424 91q47 27 52 59q-6 672 -40 1255q0 32 -32 41q-105 35 -360 46q-56 2 -59 -32q-9 -205 -16 -539q-217 325 -384 553q-11 16 -21 17q-294 6 -435 -89q-52 -32 -52 -58q6 -672 40 -1255q1 -32 32 -42q105 -34 360 -45q56 -2 59 32
q9 199 16 520q210 -319 373 -519z" />
    <glyph glyph-name="O" unicode="O" horiz-adv-x="1903" 
d="M1517 1393q145 -36 214 -189q85 -198 39 -855q-41 -281 -206 -316q-750 -91 -1280 16q-80 21 -131 93q-125 199 -123 623q10 330 91 490q36 88 163 118q621 135 1233 20zM1178 414q54 10 72 50q31 69 35 209q1 179 -49 264q-22 31 -58 40q-232 45 -515 3
q-105 -12 -124 -131q-19 -279 18 -363q30 -64 93 -80q248 -49 528 8z" />
    <glyph glyph-name="P" unicode="P" horiz-adv-x="1714" 
d="M219 53q3 -22 31 -26q156 -34 410 -41q54 3 56 27q0 196 1 371q353 -33 687 30q113 29 165 109q82 153 25 634q-25 173 -136 220q-143 89 -662 107q-415 -8 -726 -120q-31 -22 -34 -42q1 -142 38 -347q6 -20 28 -19q47 2 93 5q-2 -419 24 -908zM1162 938q13 -61 9 -92
q2 -63 -34 -125q-20 -24 -48 -29q-228 -35 -374 0q-1 145 -6 290q213 7 341 2q98 -4 112 -46z" />
    <glyph glyph-name="Q" unicode="Q" horiz-adv-x="1903" 
d="M1167 406q62 16 93 80q37 84 17 363q-18 119 -123 131q-304 42 -516 -3q-35 -9 -58 -40q-50 -85 -49 -264q4 -140 36 -209q17 -40 71 -50q260 -57 529 -8zM1337 19q-512 -63 -1064 9q-196 55 -227 321q-46 657 40 855q61 140 213 189q593 115 1234 -20q122 -22 163 -118
q81 -160 91 -490q1 -296 -60 -483q75 -82 133 -153q14 -17 -19 -51q-153 -156 -268 -234q-23 -16 -38 -2q-93 77 -198 177z" />
    <glyph glyph-name="R" unicode="R" horiz-adv-x="1699" 
d="M1159 938q12 -61 8 -92q1 -63 -35 -125q-20 -24 -48 -29q-228 -35 -374 0q-1 145 -4 290q213 7 341 2q98 -4 112 -46zM1244 -127q15 -14 38 2q114 78 268 234q33 34 19 51q-82 81 -237 243q32 5 64 11q114 29 166 109q84 153 31 634q-37 180 -166 231q-339 109 -643 94
q-457 -19 -714 -118q-31 -22 -34 -42q0 -142 35 -347q6 -20 28 -19q47 2 93 5q-6 -419 16 -908q3 -22 31 -26q156 -34 400 -41q54 3 56 27q11 194 14 368q354 -347 535 -508z" />
    <glyph glyph-name="S" unicode="S" horiz-adv-x="1434" 
d="M523 959q5 32 53 39q161 14 642 -25q39 -8 51 11q46 271 50 370q4 15 -25 25q-577 117 -1041 56q-145 -32 -194 -145q-101 -363 61 -626q52 -69 166 -94q206 -49 532 -38q72 -12 35 -58q-24 -29 -66 -38q-161 -15 -642 25q-38 8 -51 -12q-45 -270 -49 -370q-4 -14 24 -25
q577 -117 1041 -55q145 31 194 145q102 363 -60 626q-52 69 -177 102q-232 53 -455 40q-104 -12 -89 47z" />
    <glyph glyph-name="T" unicode="T" horiz-adv-x="1516" 
d="M483 38q3 -22 31 -26q172 -34 358 -16q54 3 56 27q32 447 30 899q200 3 392 6q29 0 39 59q31 242 12 388q-6 31 -43 36q-712 82 -1295 -6q-28 -2 -35 -47q0 -213 37 -436q6 -22 29 -21q179 5 353 9q1 -398 36 -872z" />
    <glyph glyph-name="U" unicode="U" horiz-adv-x="1576" 
d="M1380 1467q25 4 36 -20q120 -665 22 -1186q-36 -145 -138 -211q-195 -107 -913 -39q-281 42 -316 206q-91 591 29 1206q7 31 37 31q204 1 362 -66q29 -16 17 -65q-58 -491 -3 -767q14 -53 57 -68q78 -15 213 -8q148 12 227 59q30 25 36 61q29 236 -50 774q-10 27 8 35
q119 39 376 58z" />
    <glyph glyph-name="V" unicode="V" horiz-adv-x="1725" 
d="M503 -12q343 -48 644 -11q25 3 40 29q231 541 455 1294q5 21 -21 35q-139 69 -359 139q-53 15 -62 -7q-203 -481 -366 -984q-168 510 -383 1017q-10 22 -62 7q-222 -71 -355 -158q-26 -13 -22 -35q237 -766 460 -1299q9 -22 31 -27z" />
    <glyph glyph-name="W" unicode="W" horiz-adv-x="1903" 
d="M634 779q-41 339 -91 643q-6 24 -63 23q-262 -4 -420 -36q-30 -6 -30 -29q69 -795 171 -1301q4 -20 58 -40q220 -57 434 -53q22 3 32 18q91 138 200 305q108 -167 199 -305q9 -15 28 -18q213 -4 433 53q54 20 58 40q102 506 171 1301q0 23 -29 29q-159 32 -421 36
q-57 1 -62 -23q-50 -301 -91 -637q-112 128 -259 294q-11 16 -27 15q-16 1 -27 -15q-150 -169 -264 -300z" />
    <glyph glyph-name="X" unicode="X" horiz-adv-x="1640" 
d="M1531 1161q13 15 -14 49q-132 156 -301 293q-17 12 -29 1q-193 -179 -406 -397q-214 217 -408 395q-11 11 -29 -1q-167 -138 -299 -294q-27 -34 -14 -49q162 -184 394 -429q-189 -208 -391 -442q-15 -19 21 -60q165 -185 289 -279q23 -18 41 -4q214 219 398 410
q185 -190 401 -408q17 -14 41 4q123 95 287 281q36 41 21 59q-204 234 -394 440q231 247 392 431z" />
    <glyph glyph-name="Y" unicode="Y" horiz-adv-x="1517" 
d="M1435 1126q13 15 -13 46q-109 150 -305 297q-17 11 -27 0q-226 -259 -363 -412q-137 153 -363 412q-11 11 -27 0q-196 -147 -306 -297q-25 -31 -12 -46q275 -308 465 -479q-1 -284 13 -612q3 -22 32 -26q154 -19 402 -3q55 3 57 27q13 242 3 633q184 169 444 460z" />
    <glyph glyph-name="Z" unicode="Z" horiz-adv-x="1558" 
d="M1488 881q34 27 36 43q13 270 -77 444q-25 49 -57 56q-672 16 -1276 0q-32 1 -42 -32q-38 -108 -42 -406q-4 -58 30 -62q204 -17 543 -1q-332 -214 -565 -380q-17 -11 -18 -48q5 -332 75 -428q30 -55 56 -56q672 -16 1276 0q32 0 43 32q37 108 41 401q4 58 -30 62
q-198 16 -530 3q331 209 537 372z" />
    <glyph glyph-name="bracketleft" unicode="[" horiz-adv-x="758" 
 />
    <glyph glyph-name="backslash" unicode="\" horiz-adv-x="1246" 
d="M473 1443q-146 28 -390 7q-64 -17 -46 -63q51 -115 119 -256q87 -194 178 -447q101 -274 254 -643q20 -33 62 -41q263 -18 485 4q36 11 14 40q-262 496 -457 928q-111 263 -174 436q-9 22 -45 35z" />
    <glyph glyph-name="bracketright" unicode="]" horiz-adv-x="758" 
 />
    <glyph glyph-name="asciicircum" unicode="^" 
d="M207 2063q-194 -79 -361 -253q-15 -21 7 -68q79 -136 162 -232q27 -27 73 5q79 52 146 98q67 -46 146 -98q46 -32 73 -5q82 96 161 232q22 47 8 68q-168 174 -361 253q-29 8 -54 0z" />
    <glyph glyph-name="underscore" unicode="_" horiz-adv-x="1477" 
d="M1357 403q-430 8 -1283 -8q-23 0 -28 -20q-29 -205 -3 -398q7 -41 35 -42q771 -3 1276 3q32 1 38 30q27 146 4 382q-4 51 -39 53z" />
    <glyph glyph-name="grave" unicode="`" horiz-adv-x="742" 
d="M197 2055q-83 -96 -162 -232q-22 -47 -7 -68q167 -174 361 -253q46 -12 71 12q88 76 161 226q16 41 -6 66q-128 100 -345 243q-46 32 -73 6z" />
    <glyph glyph-name="a" unicode="a" horiz-adv-x="1702" 
 />
    <glyph glyph-name="b" unicode="b" horiz-adv-x="995" 
 />
    <glyph glyph-name="c" unicode="c" horiz-adv-x="905" 
 />
    <glyph glyph-name="d" unicode="d" horiz-adv-x="1040" 
 />
    <glyph glyph-name="e" unicode="e" horiz-adv-x="909" 
 />
    <glyph glyph-name="f" unicode="f" horiz-adv-x="559" 
 />
    <glyph glyph-name="g" unicode="g" horiz-adv-x="899" 
 />
    <glyph glyph-name="h" unicode="h" horiz-adv-x="1104" 
 />
    <glyph glyph-name="i" unicode="i" horiz-adv-x="514" 
 />
    <glyph glyph-name="j" unicode="j" horiz-adv-x="510" 
 />
    <glyph glyph-name="k" unicode="k" horiz-adv-x="1026" 
 />
    <glyph glyph-name="l" unicode="l" horiz-adv-x="522" 
 />
    <glyph glyph-name="m" unicode="m" horiz-adv-x="1569" 
 />
    <glyph glyph-name="n" unicode="n" horiz-adv-x="1108" 
 />
    <glyph glyph-name="o" unicode="o" horiz-adv-x="1010" 
 />
    <glyph glyph-name="p" unicode="p" horiz-adv-x="1645" 
 />
    <glyph glyph-name="q" unicode="q" horiz-adv-x="1024" 
 />
    <glyph glyph-name="r" unicode="r" horiz-adv-x="692" 
 />
    <glyph glyph-name="s" unicode="s" horiz-adv-x="702" 
 />
    <glyph glyph-name="t" unicode="t" horiz-adv-x="674" 
 />
    <glyph glyph-name="u" unicode="u" horiz-adv-x="1059" 
 />
    <glyph glyph-name="v" unicode="v" horiz-adv-x="993" 
 />
    <glyph glyph-name="w" unicode="w" horiz-adv-x="1415" 
 />
    <glyph glyph-name="x" unicode="x" horiz-adv-x="1010" 
 />
    <glyph glyph-name="y" unicode="y" horiz-adv-x="868" 
 />
    <glyph glyph-name="z" unicode="z" horiz-adv-x="727" 
 />
    <glyph glyph-name="braceleft" unicode="{" 
 />
    <glyph glyph-name="bar" unicode="|" horiz-adv-x="1139" 
d="M-193 1440q-134 28 -387 7q-71 -17 -72 -63q-15 -246 -14 -1346q6 -33 45 -41q255 -18 487 4q40 11 30 40q-8 510 -59 1364q0 22 -30 35z" />
    <glyph glyph-name="braceright" unicode="}" 
 />
    <glyph glyph-name="asciitilde" unicode="~" horiz-adv-x="1075" 
d="M940 1654q30 9 28 81l2 308q-8 39 -26 30q-268 -54 -427 -12q-349 49 -466 15q-17 0 -25 -42l2 -333q-2 -69 22 -69q97 43 190 52q126 6 289 -53q203 -45 411 23z" />
    <glyph glyph-name="exclamdown" unicode="&#xa1;" horiz-adv-x="660" 
d="M583 1095q14 128 -7 303q-1 33 -25 42q-237 47 -441 1q-45 -17 -51 -51q-29 -113 0 -284q10 -43 40 -44q162 -9 422 -2q57 2 62 35zM475 983q-241 18 -340 2q-29 -4 -29 -27q-62 -430 -63 -951q1 -20 43 -26q239 -19 477 2q20 5 20 21q-4 632 -52 950q-3 25 -56 29z" />
    <glyph glyph-name="cent" unicode="&#xa2;" horiz-adv-x="1139" 
 />
    <glyph glyph-name="sterling" unicode="&#xa3;" 
 />
    <glyph glyph-name="currency" unicode="&#xa4;" 
 />
    <glyph glyph-name="yen" unicode="&#xa5;" horiz-adv-x="1262" 
 />
    <glyph glyph-name="brokenbar" unicode="&#xa6;" 
 />
    <glyph glyph-name="section" unicode="&#xa7;" 
 />
    <glyph glyph-name="dieresis" unicode="&#xa8;" horiz-adv-x="1024" 
d="M601 1611q126 -11 283 0q51 7 60 26q47 192 1 358q-17 36 -51 41q-113 23 -277 2q-43 -8 -51 -35q-15 -178 -2 -341q0 -46 37 -51zM485 1662q13 163 -2 341q-8 27 -51 35q-164 21 -277 -2q-34 -5 -51 -41q-46 -166 1 -358q9 -19 60 -26q157 -11 283 0q37 5 37 51z" />
    <glyph glyph-name="copyright" unicode="&#xa9;" horiz-adv-x="1674" 
 />
    <glyph glyph-name="ordfeminine" unicode="&#xaa;" horiz-adv-x="648" 
 />
    <glyph glyph-name="guillemotleft" unicode="&#xab;" horiz-adv-x="944" 
 />
    <glyph glyph-name="logicalnot" unicode="&#xac;" 
 />
    <glyph glyph-name="registered" unicode="&#xae;" horiz-adv-x="1674" 
 />
    <glyph glyph-name="macron" unicode="&#xaf;" horiz-adv-x="670" 
 />
    <glyph glyph-name="degree" unicode="&#xb0;" horiz-adv-x="748" 
d="M56 779q-61 90 -52 481q8 105 109 164q101 55 386 27q124 -15 147 -223q20 -309 -47 -438q-55 -96 -291 -94q-201 4 -252 83zM248 1010q13 -50 47 -59q96 -15 107 30q18 194 -29 214q-62 24 -117 0q-39 -20 -8 -185z" />
    <glyph glyph-name="plusminus" unicode="&#xb1;" 
 />
    <glyph glyph-name="uni00B2" unicode="&#xb2;" 
 />
    <glyph glyph-name="uni00B3" unicode="&#xb3;" 
 />
    <glyph glyph-name="acute" unicode="&#xb4;" horiz-adv-x="742" 
d="M379 2049q-217 -143 -345 -243q-22 -25 -6 -66q73 -150 161 -226q25 -24 71 -12q194 79 361 253q15 21 -7 68q-79 136 -162 232q-27 26 -73 -6z" />
    <glyph glyph-name="mu" unicode="&#xb5;" horiz-adv-x="1180" 
 />
    <glyph glyph-name="paragraph" unicode="&#xb6;" horiz-adv-x="1024" 
 />
    <glyph glyph-name="periodcentered" unicode="&#xb7;" horiz-adv-x="508" 
 />
    <glyph glyph-name="periodcentered" unicode="&#x2219;" horiz-adv-x="508" 
 />
    <glyph glyph-name="cedilla" unicode="&#xb8;" horiz-adv-x="694" 
d="M506 -53q62 -47 75 -134q10 -131 -90 -185q-60 -33 -283 -21q-164 18 -188 74q50 114 127 129q68 -91 160 -33q44 35 -11 62q-99 16 -201 17q-4 94 -2 204q105 4 232 2q-6 -50 -3 -95q165 3 184 -20z" />
    <glyph glyph-name="uni00B9" unicode="&#xb9;" 
 />
    <glyph glyph-name="ordmasculine" unicode="&#xba;" horiz-adv-x="718" 
 />
    <glyph glyph-name="guillemotright" unicode="&#xbb;" horiz-adv-x="944" 
 />
    <glyph glyph-name="onequarter" unicode="&#xbc;" horiz-adv-x="1708" 
 />
    <glyph glyph-name="onehalf" unicode="&#xbd;" horiz-adv-x="1964" 
 />
    <glyph glyph-name="threequarters" unicode="&#xbe;" horiz-adv-x="1708" 
 />
    <glyph glyph-name="questiondown" unicode="&#xbf;" horiz-adv-x="1492" 
d="M976 1041q-438 23 -470 3q3 -126 -145 -152q-193 -56 -244 -123q-151 -248 -62 -524q99 -246 503 -274q361 -29 700 193q28 10 24 24q-4 97 -147 367q-11 18 -49 10q-249 -165 -526 -166q-39 6 -52 38q-12 41 -10 68q1 32 34 54q29 18 73 29q195 42 291.5 105.5
t110.5 155.5q2 158 -31 192zM545 1096q260 -7 422 2q33 7 43 49q26 158 -3 267q-6 33 -51 50q-204 44 -441 -1q-24 -9 -33 -58q-13 -152 0 -274q7 -35 63 -35z" />
    <glyph glyph-name="Agrave" unicode="&#xc0;" horiz-adv-x="1702" 
d="M1082 291q47 -165 98 -327q8 -23 62 -13q226 49 371 106q26 10 24 33q-154 769 -327 1320q-10 32 -60 39q-385 42 -823 -13q-34 -8 -41 -26q-173 -551 -341 -1343q-2 -23 25 -33q141 -75 368 -124q54 -10 62 13q56 174 106 348q250 6 476 20zM927 889q31 -134 65 -266
q-131 -1 -290 -3q35 134 66 268q82 0 159 1zM731 2066q-83 -96 -162 -232q-22 -47 -7 -68q167 -174 361 -253q46 -12 71 12q88 76 161 226q16 41 -6 66q-128 100 -345 243q-46 32 -73 6z" />
    <glyph glyph-name="Aacute" unicode="&#xc1;" horiz-adv-x="1702" 
d="M1082 291q47 -165 98 -327q8 -23 62 -13q226 49 371 106q26 10 24 33q-154 769 -327 1320q-10 32 -60 39q-385 42 -823 -13q-34 -8 -41 -26q-173 -551 -341 -1343q-2 -23 25 -33q141 -75 368 -124q54 -10 62 13q56 174 106 348q250 6 476 20zM927 889q31 -134 65 -266
q-131 -1 -290 -3q35 134 66 268q82 0 159 1zM899 2064q-217 -143 -345 -243q-22 -25 -6 -66q73 -150 161 -226q25 -24 71 -12q194 79 361 253q15 21 -7 68q-79 136 -162 232q-27 26 -73 -6z" />
    <glyph glyph-name="Acircumflex" unicode="&#xc2;" horiz-adv-x="1702" 
d="M1082 291q47 -165 98 -327q8 -23 62 -13q226 49 371 106q26 10 24 33q-154 769 -327 1320q-10 32 -60 39q-385 42 -823 -13q-34 -8 -41 -26q-173 -551 -341 -1343q-2 -23 25 -33q141 -75 368 -124q54 -10 62 13q56 174 106 348q250 6 476 20zM927 889q31 -134 65 -266
q-131 -1 -290 -3q35 134 66 268q82 0 159 1zM831 2075q-194 -79 -361 -253q-15 -21 7 -68q79 -136 162 -232q27 -27 73 5q79 52 146 98q67 -46 146 -98q46 -32 73 -5q82 96 161 232q22 47 8 68q-168 174 -361 253q-29 8 -54 0z" />
    <glyph glyph-name="Atilde" unicode="&#xc3;" horiz-adv-x="1702" 
d="M1082 291q47 -165 98 -327q8 -23 62 -13q226 49 371 106q26 10 24 33q-154 769 -327 1320q-10 32 -60 39q-385 42 -823 -13q-34 -8 -41 -26q-173 -551 -341 -1343q-2 -23 25 -33q141 -75 368 -124q54 -10 62 13q56 174 106 348q250 6 476 20zM927 889q31 -134 65 -266
q-131 -1 -290 -3q35 134 66 268q82 0 159 1zM1275 1605q30 9 28 81l2 308q-8 39 -26 30q-268 -54 -427 -12q-349 49 -466 15q-17 0 -25 -42l2 -333q-2 -69 22 -69q97 43 190 52q126 6 289 -53q203 -45 411 23z" />
    <glyph glyph-name="Adieresis" unicode="&#xc4;" horiz-adv-x="1702" 
d="M1082 291q47 -165 98 -327q8 -23 62 -13q226 49 371 106q26 10 24 33q-154 769 -327 1320q-10 32 -60 39q-385 42 -823 -13q-34 -8 -41 -26q-173 -551 -341 -1343q-2 -23 25 -33q141 -75 368 -124q54 -10 62 13q56 174 106 348q250 6 476 20zM927 889q31 -134 65 -266
q-131 -1 -290 -3q35 134 66 268q82 0 159 1zM908 1597q126 -11 283 0q51 7 60 26q47 192 1 358q-17 36 -51 41q-113 23 -277 2q-43 -8 -51 -35q-15 -178 -2 -341q0 -46 37 -51zM792 1648q13 163 -2 341q-8 27 -51 35q-164 21 -277 -2q-34 -5 -51 -41q-46 -166 1 -358
q9 -19 60 -26q157 -11 283 0q37 5 37 51z" />
    <glyph glyph-name="Aring" unicode="&#xc5;" horiz-adv-x="1702" 
d="M1082 291q47 -165 98 -327q8 -23 62 -13q226 49 371 106q26 10 24 33q-154 769 -327 1320q-10 32 -60 39q-385 42 -823 -13q-34 -8 -41 -26q-173 -551 -341 -1343q-2 -23 25 -33q141 -75 368 -124q54 -10 62 13q56 174 106 348q250 6 476 20zM927 889q31 -134 65 -266
q-131 -1 -290 -3q35 134 66 268q82 0 159 1zM590 1586q-56 67 -48 358q7 78 102 122q93 41 358 21q115 -11 137 -166q18 -231 -44 -327q-51 -71 -271 -70q-186 3 -234 62zM769 1758q11 -38 44 -44q89 -12 99 22q16 145 -27 160q-58 18 -109 0q-37 -15 -7 -138z" />
    <glyph glyph-name="AE" unicode="&#xc6;" horiz-adv-x="2376" 
d="M927 889q31 -134 65 -266q-131 -1 -290 -3q35 134 66 268q82 0 159 1zM2262 29q25 1 29 29q22 138 4 361q-4 49 -31 51q-247 -16 -685 -29q1 51 1 102q236 11 423 17q22 1 26 22q20 109 4 284q-4 38 -28 39q-168 1 -428 -6l-2 96q299 10 596 11q32 3 36 52
q16 214 -14 351q-7 28 -37 27q-474 12 -860 -5q-16 14 -46 18q-385 42 -823 -13q-34 -8 -41 -26q-173 -551 -341 -1343q-2 -23 25 -33q141 -75 368 -124q54 -10 62 13q56 174 106 348q250 6 476 20q47 -165 98 -327q8 -23 62 -13q102 22 188 46q497 2 832 32z" />
    <glyph glyph-name="Ccedilla" unicode="&#xc7;" horiz-adv-x="1479" 
d="M604 -10q-152 5 -301 33q-145 36 -211 138q-107 195 -39 913q42 281 206 316q591 91 1057 5q36 -15 31 -37q-29 -184 -96 -342q-16 -29 -65 -17q-312 30 -588 -51q-53 -14 -68 -57q-15 -78 -8 -213q14 -176 61 -255q25 -30 61 -36q236 -29 625 84q26 10 35 -8
q57 -101 97 -312q4 -25 -20 -36q-278 -95 -548 -118q0 -21 1 -41q165 3 184 -20q62 -47 75 -134q10 -131 -90 -185q-60 -33 -283 -21q-164 18 -188 74q50 114 127 129q68 -91 160 -33q44 35 -11 62q-99 16 -201 17q-3 69 -3 145z" />
    <glyph glyph-name="Egrave" unicode="&#xc8;" horiz-adv-x="1487" 
d="M687 549q236 11 423 17q22 1 26 22q20 109 4 284q-4 38 -28 39q-168 1 -428 -6l-2 96q299 10 596 11q32 3 36 52q16 214 -14 351q-7 28 -37 27q-709 18 -1222 -28q-27 -2 -33 -41q3 -189 41 -385q6 -18 28 -17q46 3 91 6q-6 -425 18 -939q3 -22 32 -26q111 -14 270 -9
q529 0 881 32q25 1 29 29q22 138 4 361q-4 49 -31 51q-247 -16 -685 -29q1 51 1 102zM607 2066q-83 -96 -162 -232q-22 -47 -7 -68q167 -174 361 -253q46 -12 71 12q88 76 161 226q16 41 -6 66q-128 100 -345 243q-46 32 -73 6z" />
    <glyph glyph-name="Eacute" unicode="&#xc9;" horiz-adv-x="1487" 
d="M687 549q236 11 423 17q22 1 26 22q20 109 4 284q-4 38 -28 39q-168 1 -428 -6l-2 96q299 10 596 11q32 3 36 52q16 214 -14 351q-7 28 -37 27q-709 18 -1222 -28q-27 -2 -33 -41q3 -189 41 -385q6 -18 28 -17q46 3 91 6q-6 -425 18 -939q3 -22 32 -26q111 -14 270 -9
q529 0 881 32q25 1 29 29q22 138 4 361q-4 49 -31 51q-247 -16 -685 -29q1 51 1 102zM830 2061q-217 -143 -345 -243q-22 -25 -6 -66q73 -150 161 -226q25 -24 71 -12q194 79 361 253q15 21 -7 68q-79 136 -162 232q-27 26 -73 -6z" />
    <glyph glyph-name="Ecircumflex" unicode="&#xca;" horiz-adv-x="1487" 
d="M687 549q236 11 423 17q22 1 26 22q20 109 4 284q-4 38 -28 39q-168 1 -428 -6l-2 96q299 10 596 11q32 3 36 52q16 214 -14 351q-7 28 -37 27q-709 18 -1222 -28q-27 -2 -33 -41q3 -189 41 -385q6 -18 28 -17q46 3 91 6q-6 -425 18 -939q3 -22 32 -26q111 -14 270 -9
q529 0 881 32q25 1 29 29q22 138 4 361q-4 49 -31 51q-247 -16 -685 -29q1 51 1 102zM681 2075q-194 -79 -361 -253q-15 -21 7 -68q79 -136 162 -232q27 -27 73 5q79 52 146 98q67 -46 146 -98q46 -32 73 -5q82 96 161 232q22 47 8 68q-168 174 -361 253q-29 8 -54 0z" />
    <glyph glyph-name="Edieresis" unicode="&#xcb;" horiz-adv-x="1487" 
d="M687 549q236 11 423 17q22 1 26 22q20 109 4 284q-4 38 -28 39q-168 1 -428 -6l-2 96q299 10 596 11q32 3 36 52q16 214 -14 351q-7 28 -37 27q-709 18 -1222 -28q-27 -2 -33 -41q3 -189 41 -385q6 -18 28 -17q46 3 91 6q-6 -425 18 -939q3 -22 32 -26q111 -14 270 -9
q529 0 881 32q25 1 29 29q22 138 4 361q-4 49 -31 51q-247 -16 -685 -29q1 51 1 102zM758 1608q126 -11 283 0q51 7 60 26q47 192 1 358q-17 36 -51 41q-113 23 -277 2q-43 -8 -51 -35q-15 -178 -2 -341q0 -46 37 -51zM642 1659q13 163 -2 341q-8 27 -51 35q-164 21 -277 -2
q-34 -5 -51 -41q-46 -166 1 -358q9 -19 60 -26q157 -11 283 0q37 5 37 51z" />
    <glyph glyph-name="Igrave" unicode="&#xcc;" horiz-adv-x="660" 
d="M521 37q18 378 22 1128q0 19 -20 26q-208 24 -417 2q-42 -7 -43 -32q1 -618 33 -1128q0 -28 29 -32q99 -19 340 2q53 5 56 34zM191 1947q-83 -96 -162 -232q-22 -47 -7 -68q167 -174 361 -253q46 -12 71 12q88 76 161 226q16 41 -6 66q-128 100 -345 243q-46 32 -73 6z
" />
    <glyph glyph-name="Iacute" unicode="&#xcd;" horiz-adv-x="660" 
d="M521 37q18 378 22 1128q0 19 -20 26q-208 24 -417 2q-42 -7 -43 -32q1 -618 33 -1128q0 -28 29 -32q99 -19 340 2q53 5 56 34zM388 1946q-217 -143 -345 -243q-22 -25 -6 -66q73 -150 161 -226q25 -24 71 -12q194 79 361 253q15 21 -7 68q-79 136 -162 232q-27 26 -73 -6
z" />
    <glyph glyph-name="Icircumflex" unicode="&#xce;" horiz-adv-x="743" 
d="M570 37q18 378 22 1128q0 19 -20 26q-208 24 -417 2q-42 -7 -43 -32q1 -618 33 -1128q0 -28 29 -32q99 -19 340 2q53 5 56 34zM325 1980q-194 -79 -361 -253q-15 -21 7 -68q79 -136 162 -232q27 -27 73 5q79 52 146 98q67 -46 146 -98q46 -32 73 -5q82 96 161 232
q22 47 8 68q-168 174 -361 253q-29 8 -54 0z" />
    <glyph glyph-name="Idieresis" unicode="&#xcf;" horiz-adv-x="830" 
d="M605 37q18 378 22 1128q0 19 -20 26q-208 24 -417 2q-42 -7 -43 -32q1 -618 33 -1128q0 -28 29 -32q99 -19 340 2q53 5 56 34zM466 1412q126 -11 283 0q51 7 60 26q47 192 1 358q-17 36 -51 41q-113 23 -277 2q-43 -8 -51 -35q-15 -178 -2 -341q0 -46 37 -51zM350 1463
q13 163 -2 341q-8 27 -51 35q-164 21 -277 -2q-34 -5 -51 -41q-46 -166 1 -358q9 -19 60 -26q157 -11 283 0q37 5 37 51z" />
    <glyph glyph-name="Eth" unicode="&#xd0;" horiz-adv-x="1518" 
 />
    <glyph glyph-name="Ntilde" unicode="&#xd1;" horiz-adv-x="1558" 
d="M938 4q27 -33 43 -35q260 -4 424 91q47 27 52 59q-6 672 -40 1255q0 32 -32 41q-105 35 -360 46q-56 2 -59 -32q-9 -205 -16 -539q-217 325 -384 553q-11 16 -21 17q-294 6 -435 -89q-52 -32 -52 -58q6 -672 40 -1255q1 -32 32 -42q105 -34 360 -45q56 -2 59 32
q9 199 16 520q210 -319 373 -519zM1162 1591q30 9 28 81l2 308q-8 39 -26 30q-268 -54 -427 -12q-349 49 -466 15q-17 0 -25 -42l2 -333q-2 -69 22 -69q97 43 190 52q126 6 289 -53q203 -45 411 23z" />
    <glyph glyph-name="Ograve" unicode="&#xd2;" horiz-adv-x="1903" 
d="M1517 1393q145 -36 214 -189q85 -198 39 -855q-41 -281 -206 -316q-750 -91 -1280 16q-80 21 -131 93q-125 199 -123 623q10 330 91 490q36 88 163 118q621 135 1233 20zM1178 414q54 10 72 50q31 69 35 209q1 179 -49 264q-22 31 -58 40q-232 45 -515 3
q-105 -12 -124 -131q-19 -279 18 -363q30 -64 93 -80q248 -49 528 8zM775 2063q-83 -96 -162 -232q-22 -47 -7 -68q167 -174 361 -253q46 -12 71 12q88 76 161 226q16 41 -6 66q-128 100 -345 243q-46 32 -73 6z" />
    <glyph glyph-name="Oacute" unicode="&#xd3;" horiz-adv-x="1903" 
d="M1517 1393q145 -36 214 -189q85 -198 39 -855q-41 -281 -206 -316q-750 -91 -1280 16q-80 21 -131 93q-125 199 -123 623q10 330 91 490q36 88 163 118q621 135 1233 20zM1178 414q54 10 72 50q31 69 35 209q1 179 -49 264q-22 31 -58 40q-232 45 -515 3
q-105 -12 -124 -131q-19 -279 18 -363q30 -64 93 -80q248 -49 528 8zM934 2061q-217 -143 -345 -243q-22 -25 -6 -66q73 -150 161 -226q25 -24 71 -12q194 79 361 253q15 21 -7 68q-79 136 -162 232q-27 26 -73 -6z" />
    <glyph glyph-name="Ocircumflex" unicode="&#xd4;" horiz-adv-x="1903" 
d="M1517 1393q145 -36 214 -189q85 -198 39 -855q-41 -281 -206 -316q-750 -91 -1280 16q-80 21 -131 93q-125 199 -123 623q10 330 91 490q36 88 163 118q621 135 1233 20zM1178 414q54 10 72 50q31 69 35 209q1 179 -49 264q-22 31 -58 40q-232 45 -515 3
q-105 -12 -124 -131q-19 -279 18 -363q30 -64 93 -80q248 -49 528 8zM880 2067q-194 -79 -361 -253q-15 -21 7 -68q79 -136 162 -232q27 -27 73 5q79 52 146 98q67 -46 146 -98q46 -32 73 -5q82 96 161 232q22 47 8 68q-168 174 -361 253q-29 8 -54 0z" />
    <glyph glyph-name="Otilde" unicode="&#xd5;" horiz-adv-x="1903" 
d="M1517 1393q145 -36 214 -189q85 -198 39 -855q-41 -281 -206 -316q-750 -91 -1280 16q-80 21 -131 93q-125 199 -123 623q10 330 91 490q36 88 163 118q621 135 1233 20zM1178 414q54 10 72 50q31 69 35 209q1 179 -49 264q-22 31 -58 40q-232 45 -515 3
q-105 -12 -124 -131q-19 -279 18 -363q30 -64 93 -80q248 -49 528 8zM1362 1605q30 9 28 81l2 308q-8 39 -26 30q-268 -54 -427 -12q-349 49 -466 15q-17 0 -25 -42l2 -333q-2 -69 22 -69q97 43 190 52q126 6 289 -53q203 -45 411 23z" />
    <glyph glyph-name="Odieresis" unicode="&#xd6;" horiz-adv-x="1903" 
d="M1517 1393q145 -36 214 -189q85 -198 39 -855q-41 -281 -206 -316q-750 -91 -1280 16q-80 21 -131 93q-125 199 -123 623q10 330 91 490q36 88 163 118q621 135 1233 20zM1178 414q54 10 72 50q31 69 35 209q1 179 -49 264q-22 31 -58 40q-232 45 -515 3
q-105 -12 -124 -131q-19 -279 18 -363q30 -64 93 -80q248 -49 528 8zM997 1592q126 -11 283 0q51 7 60 26q47 192 1 358q-17 36 -51 41q-113 23 -277 2q-43 -8 -51 -35q-15 -178 -2 -341q0 -46 37 -51zM881 1643q13 163 -2 341q-8 27 -51 35q-164 21 -277 -2q-34 -5 -51 -41
q-46 -166 1 -358q9 -19 60 -26q157 -11 283 0q37 5 37 51z" />
    <glyph glyph-name="multiply" unicode="&#xd7;" horiz-adv-x="1115" 
d="M989 871q12 11 0 28q-129 160 -277 285q-33 26 -48 12q-81 -79 -155 -152q-74 72 -155 150q-11 11 -28 0q-160 -129 -285 -278q-26 -32 -13 -47q77 -79 149 -153q-79 -79 -147 -148q-15 -16 3 -40q89 -117 266 -274q37 -34 56 -19q68 63 153 147q79 -79 149 -147
q16 -15 40 3q117 88 274 265q34 38 19 57q-64 69 -150 156q71 74 149 155z" />
    <glyph glyph-name="Oslash" unicode="&#xd8;" horiz-adv-x="1614" 
 />
    <glyph glyph-name="Ugrave" unicode="&#xd9;" horiz-adv-x="1576" 
d="M1380 1467q25 4 36 -20q120 -665 22 -1186q-36 -145 -138 -211q-195 -107 -913 -39q-281 42 -316 206q-91 591 29 1206q7 31 37 31q204 1 362 -66q29 -16 17 -65q-58 -491 -3 -767q14 -53 57 -68q78 -15 213 -8q148 12 227 59q30 25 36 61q29 236 -50 774q-10 27 8 35
q119 39 376 58zM607 2066q-83 -96 -162 -232q-22 -47 -7 -68q167 -174 361 -253q46 -12 71 12q88 76 161 226q16 41 -6 66q-128 100 -345 243q-46 32 -73 6z" />
    <glyph glyph-name="Uacute" unicode="&#xda;" horiz-adv-x="1576" 
d="M1380 1467q25 4 36 -20q120 -665 22 -1186q-36 -145 -138 -211q-195 -107 -913 -39q-281 42 -316 206q-91 591 29 1206q7 31 37 31q204 1 362 -66q29 -16 17 -65q-58 -491 -3 -767q14 -53 57 -68q78 -15 213 -8q148 12 227 59q30 25 36 61q29 236 -50 774q-10 27 8 35
q119 39 376 58zM856 2064q-217 -143 -345 -243q-22 -25 -6 -66q73 -150 161 -226q25 -24 71 -12q194 79 361 253q15 21 -7 68q-79 136 -162 232q-27 26 -73 -6z" />
    <glyph glyph-name="Ucircumflex" unicode="&#xdb;" horiz-adv-x="1576" 
d="M1380 1467q25 4 36 -20q120 -665 22 -1186q-36 -145 -138 -211q-195 -107 -913 -39q-281 42 -316 206q-91 591 29 1206q7 31 37 31q204 1 362 -66q29 -16 17 -65q-58 -491 -3 -767q14 -53 57 -68q78 -15 213 -8q148 12 227 59q30 25 36 61q29 236 -50 774q-10 27 8 35
q119 39 376 58zM724 2072q-194 -79 -361 -253q-15 -21 7 -68q79 -136 162 -232q27 -27 73 5q79 52 146 98q67 -46 146 -98q46 -32 73 -5q82 96 161 232q22 47 8 68q-168 174 -361 253q-29 8 -54 0z" />
    <glyph glyph-name="Udieresis" unicode="&#xdc;" horiz-adv-x="1576" 
d="M1380 1467q25 4 36 -20q120 -665 22 -1186q-36 -145 -138 -211q-195 -107 -913 -39q-281 42 -316 206q-91 591 29 1206q7 31 37 31q204 1 362 -66q29 -16 17 -65q-58 -491 -3 -767q14 -53 57 -68q78 -15 213 -8q148 12 227 59q30 25 36 61q29 236 -50 774q-10 27 8 35
q119 39 376 58zM842 1600q126 -11 283 0q51 7 60 26q47 192 1 358q-17 36 -51 41q-113 23 -277 2q-43 -8 -51 -35q-15 -178 -2 -341q0 -46 37 -51zM726 1651q13 163 -2 341q-8 27 -51 35q-164 21 -277 -2q-34 -5 -51 -41q-46 -166 1 -358q9 -19 60 -26q157 -11 283 0
q37 5 37 51z" />
    <glyph glyph-name="Yacute" unicode="&#xdd;" horiz-adv-x="1233" 
 />
    <glyph glyph-name="Thorn" unicode="&#xde;" horiz-adv-x="1120" 
 />
    <glyph glyph-name="germandbls" unicode="&#xdf;" horiz-adv-x="1251" 
 />
    <glyph glyph-name="agrave" unicode="&#xe0;" horiz-adv-x="922" 
 />
    <glyph glyph-name="aacute" unicode="&#xe1;" horiz-adv-x="922" 
 />
    <glyph glyph-name="acircumflex" unicode="&#xe2;" horiz-adv-x="922" 
 />
    <glyph glyph-name="atilde" unicode="&#xe3;" horiz-adv-x="922" 
 />
    <glyph glyph-name="adieresis" unicode="&#xe4;" horiz-adv-x="922" 
 />
    <glyph glyph-name="aring" unicode="&#xe5;" horiz-adv-x="922" 
 />
    <glyph glyph-name="ae" unicode="&#xe6;" horiz-adv-x="1454" 
 />
    <glyph glyph-name="ccedilla" unicode="&#xe7;" horiz-adv-x="905" 
 />
    <glyph glyph-name="egrave" unicode="&#xe8;" horiz-adv-x="909" 
 />
    <glyph glyph-name="eacute" unicode="&#xe9;" horiz-adv-x="909" 
 />
    <glyph glyph-name="ecircumflex" unicode="&#xea;" horiz-adv-x="909" 
 />
    <glyph glyph-name="edieresis" unicode="&#xeb;" horiz-adv-x="909" 
 />
    <glyph glyph-name="igrave" unicode="&#xec;" horiz-adv-x="514" 
 />
    <glyph glyph-name="iacute" unicode="&#xed;" horiz-adv-x="514" 
 />
    <glyph glyph-name="icircumflex" unicode="&#xee;" horiz-adv-x="514" 
 />
    <glyph glyph-name="idieresis" unicode="&#xef;" horiz-adv-x="514" 
 />
    <glyph glyph-name="eth" unicode="&#xf0;" horiz-adv-x="1139" 
 />
    <glyph glyph-name="ntilde" unicode="&#xf1;" horiz-adv-x="1108" 
 />
    <glyph glyph-name="ograve" unicode="&#xf2;" horiz-adv-x="1010" 
 />
    <glyph glyph-name="oacute" unicode="&#xf3;" horiz-adv-x="1010" 
 />
    <glyph glyph-name="ocircumflex" unicode="&#xf4;" horiz-adv-x="1010" 
 />
    <glyph glyph-name="otilde" unicode="&#xf5;" horiz-adv-x="1010" 
 />
    <glyph glyph-name="odieresis" unicode="&#xf6;" horiz-adv-x="1010" 
 />
    <glyph glyph-name="divide" unicode="&#xf7;" horiz-adv-x="658" 
d="M577 228q13 126 0 283q-9 51 -33 60q-237 47 -441 1q-45 -17 -51 -51q-29 -113 -3 -277q10 -43 43 -51q162 -9 422 -2q56 0 63 37zM577 865q13 126 0 283q-9 51 -33 60q-237 47 -441 1q-45 -17 -51 -51q-29 -113 -3 -277q10 -43 43 -51q162 -9 422 -2q56 0 63 37z
M577 228q13 126 0 283q-9 51 -33 60q-237 47 -441 1q-45 -17 -51 -51q-29 -113 -3 -277q10 -43 43 -51q162 -9 422 -2q56 0 63 37z" />
    <glyph glyph-name="oslash" unicode="&#xf8;" horiz-adv-x="1010" 
 />
    <glyph glyph-name="ugrave" unicode="&#xf9;" horiz-adv-x="1059" 
 />
    <glyph glyph-name="uacute" unicode="&#xfa;" horiz-adv-x="1059" 
 />
    <glyph glyph-name="ucircumflex" unicode="&#xfb;" horiz-adv-x="1059" 
 />
    <glyph glyph-name="udieresis" unicode="&#xfc;" horiz-adv-x="1059" 
 />
    <glyph glyph-name="yacute" unicode="&#xfd;" horiz-adv-x="868" 
 />
    <glyph glyph-name="thorn" unicode="&#xfe;" horiz-adv-x="1010" 
 />
    <glyph glyph-name="ydieresis" unicode="&#xff;" horiz-adv-x="868" 
 />
    <glyph glyph-name="dotlessi" unicode="&#x131;" horiz-adv-x="514" 
 />
    <glyph glyph-name="circumflex" unicode="&#x2c6;" 
d="M207 2063q-194 -79 -361 -253q-15 -21 7 -68q79 -136 162 -232q27 -27 73 5q79 52 146 98q67 -46 146 -98q46 -32 73 -5q82 96 161 232q22 47 8 68q-168 174 -361 253q-29 8 -54 0z" />
    <glyph glyph-name="caron" unicode="&#x2c7;" horiz-adv-x="1024" 
 />
    <glyph glyph-name="uni02C9" unicode="&#x2c9;" horiz-adv-x="1024" 
 />
    <glyph glyph-name="breve" unicode="&#x2d8;" horiz-adv-x="1024" 
 />
    <glyph glyph-name="dotaccent" unicode="&#x2d9;" horiz-adv-x="1024" 
 />
    <glyph glyph-name="ring" unicode="&#x2da;" horiz-adv-x="691" 
d="M55 1589q-56 67 -48 358q8 78 102 122q93 41 358 21q116 -11 137 -166q18 -231 -44 -327q-50 -71 -270 -70q-187 3 -235 62zM235 1761q11 -38 43 -44q89 -12 99 22q17 145 -27 160q-58 18 -108 0q-37 -15 -7 -138z" />
    <glyph glyph-name="ogonek" unicode="&#x2db;" horiz-adv-x="1024" 
 />
    <glyph glyph-name="tilde" unicode="&#x2dc;" horiz-adv-x="1075" 
d="M940 1654q30 9 28 81l2 308q-8 39 -26 30q-268 -54 -427 -12q-349 49 -466 15q-17 0 -25 -42l2 -333q-2 -69 22 -69q97 43 190 52q126 6 289 -53q203 -45 411 23z" />
    <glyph glyph-name="hungarumlaut" unicode="&#x2dd;" horiz-adv-x="1024" 
 />
    <glyph glyph-name="endash" unicode="&#x2013;" horiz-adv-x="1108" 
 />
    <glyph glyph-name="emdash" unicode="&#x2014;" horiz-adv-x="2048" 
 />
    <glyph glyph-name="quoteleft" unicode="&#x2018;" horiz-adv-x="557" 
 />
    <glyph glyph-name="quoteright" unicode="&#x2019;" horiz-adv-x="557" 
 />
    <glyph glyph-name="quotesinglbase" unicode="&#x201a;" horiz-adv-x="557" 
 />
    <glyph glyph-name="quotedblleft" unicode="&#x201c;" horiz-adv-x="910" 
 />
    <glyph glyph-name="quotedblright" unicode="&#x201d;" horiz-adv-x="910" 
 />
    <glyph glyph-name="quotedblbase" unicode="&#x201e;" horiz-adv-x="910" 
 />
    <glyph glyph-name="dagger" unicode="&#x2020;" horiz-adv-x="1473" 
 />
    <glyph glyph-name="daggerdbl" unicode="&#x2021;" 
 />
    <glyph glyph-name="bullet" unicode="&#x2022;" horiz-adv-x="1024" 
 />
    <glyph glyph-name="ellipsis" unicode="&#x2026;" horiz-adv-x="2048" 
 />
    <glyph glyph-name="guilsinglleft" unicode="&#x2039;" horiz-adv-x="631" 
 />
    <glyph glyph-name="guilsinglright" unicode="&#x203a;" horiz-adv-x="631" 
 />
    <glyph glyph-name="fraction" unicode="&#x2044;" horiz-adv-x="342" 
 />
    <glyph glyph-name="fraction" unicode="&#x2215;" horiz-adv-x="342" 
 />
    <glyph glyph-name="franc" unicode="&#x20a3;" 
 />
    <glyph glyph-name="lira" unicode="&#x20a4;" 
 />
    <glyph glyph-name="peseta" unicode="&#x20a7;" horiz-adv-x="2028" 
 />
    <glyph glyph-name="Euro" unicode="&#x20ac;" horiz-adv-x="1555" 
d="M1366 1004q-9 -18 -35 -10q-348 83 -584 42q-36 -8 -61 -39q-47 -82 -61 -259q-10 -184 18 -256q15 -42 68 -54q266 -22 578 24q49 15 65 -13q67 -155 96 -337q5 -22 -31 -39q-466 -110 -1057 -50q-164 26 -206 305q-68 714 39 915q66 105 211 149q521 125 1037 -26
q24 -9 20 -35q-40 -213 -97 -317zM1132 931q10 -105 -4 -161q-4 -12 -30 -13q-408 -2 -1029 -1q-23 1 -29 18q-21 81 2 168q5 8 23 8q689 7 1036 4q27 -1 31 -23zM1132 681q10 -105 -4 -161q-4 -12 -30 -13q-408 -2 -1029 -1q-23 1 -29 18q-21 81 2 168q5 8 23 8
q689 7 1036 4q27 -1 31 -23z" />
    <glyph glyph-name="afii61352" unicode="&#x2116;" horiz-adv-x="2271" 
 />
    <glyph glyph-name="trademark" unicode="&#x2122;" horiz-adv-x="1497" 
 />
    <glyph glyph-name="partialdiff" unicode="&#x2202;" 
 />
    <glyph glyph-name="Delta" unicode="&#x2206;" horiz-adv-x="1081" 
 />
    <glyph glyph-name="product" unicode="&#x220f;" horiz-adv-x="1515" 
 />
    <glyph glyph-name="summation" unicode="&#x2211;" horiz-adv-x="1206" 
 />
    <glyph glyph-name="minus" unicode="&#x2212;" 
 />
    <glyph glyph-name="radical" unicode="&#x221a;" 
 />
    <glyph glyph-name="infinity" unicode="&#x221e;" 
 />
    <glyph glyph-name="integral" unicode="&#x222b;" horiz-adv-x="665" 
 />
    <glyph glyph-name="approxequal" unicode="&#x2248;" 
 />
    <glyph glyph-name="lessequal" unicode="&#x2264;" 
 />
    <glyph glyph-name="greaterequal" unicode="&#x2265;" 
 />
    <glyph glyph-name="uniF001" unicode="&#xf001;" horiz-adv-x="1073" 
 />
    <glyph glyph-name="uniF001" unicode="&#xfb01;" horiz-adv-x="1073" 
 />
    <glyph glyph-name="uniF002" unicode="&#xf002;" horiz-adv-x="1081" 
 />
    <glyph glyph-name="uniF002" unicode="&#xfb02;" horiz-adv-x="1081" 
 />
    <glyph glyph-name="OE" unicode="&#x152;" horiz-adv-x="2616" 
d="M1178 414q54 10 72 50q31 69 35 209q1 179 -49 264q-22 31 -58 40q-232 45 -515 3q-105 -12 -124 -131q-19 -279 18 -363q30 -64 93 -80q248 -49 528 8zM1431 18q-665 -66 -1147 31q-80 21 -131 93q-125 199 -123 623q10 330 91 490q36 88 163 118q475 103 944 60
q493 40 1159 23q30 1 37 -27q30 -137 14 -351q-4 -49 -36 -52q-297 -1 -596 -11l2 -96q260 7 428 6q24 -1 28 -39q16 -175 -4 -284q-4 -21 -26 -22q-187 -6 -423 -17q0 -51 -1 -102q438 13 685 29q27 -2 31 -51q18 -223 -4 -361q-4 -28 -29 -29q-352 -32 -881 -32
q-100 -3 -181 1z" />
    </font>
</defs>
</svg>
